<?xml version="1.0" encoding="utf-8"?>
<svg version="1.1" xmlns="http://www.w3.org/2000/svg" xmlns:xlink="http://www.w3.org/1999/xlink" x="0px" y="0px" width="100%" viewBox="0 0 475.279 104.299" enable-background="new 0 0 595.279 104.299" xml:space="preserve">
  <g class="logo-text">
    <path fill="#001C3D" d="M106.145,71.579l-1.979-13.223c-0.416-2.604-0.677-4.686-0.885-6.611h-0.104
      c-0.364,1.769-0.833,3.748-1.51,5.882l-4.373,13.898h-5.31l-4.217-12.857c-0.729-2.238-1.458-4.736-1.77-6.976h-0.104
      c-0.156,2.447-0.469,4.632-0.781,7.029l-1.562,12.752h-5.414l4.269-27.694h6.247l4.633,14.213c0.677,1.977,1.146,3.852,1.51,5.83
      h0.104c0.416-2.135,0.885-3.697,1.562-5.727L101.2,43.78h6.195l4.32,27.694h-5.57V71.579z"></path>
    <path fill="#001C3D" d="M126.969,71.579c0-1.197,0.052-2.395,0.208-3.436l-0.052-0.053c-0.989,2.291-3.488,3.904-6.507,3.904
      c-3.696,0-5.831-2.082-5.831-5.361c0-4.893,4.842-7.443,11.766-7.443v-1.094c0-2.135-1.042-3.229-3.957-3.229
      c-1.822,0-4.32,0.625-6.039,1.615l-0.468-4.374c2.03-0.729,4.685-1.25,7.288-1.25c6.559,0,8.382,2.655,8.382,7.081v8.484
      c0,1.666,0.052,3.592,0.104,5.258h-4.894V71.579z M126.552,62.573c-5.519,0-6.769,1.613-6.769,3.229
      c0,1.301,0.886,2.186,2.396,2.186c2.603,0,4.373-2.447,4.373-4.945V62.573z"></path>
    <path fill="#001C3D" d="M148.26,71.579c0-1.197,0.052-2.395,0.208-3.436l-0.053-0.053c-0.988,2.291-3.487,3.904-6.507,3.904
      c-3.695,0-5.83-2.082-5.83-5.361c0-4.893,4.841-7.443,11.765-7.443v-1.094c0-2.135-1.041-3.229-3.956-3.229
      c-1.822,0-4.32,0.625-6.039,1.615l-0.469-4.374c2.03-0.729,4.686-1.25,7.288-1.25c6.56,0,8.382,2.655,8.382,7.081v8.484
      c0,1.666,0.052,3.592,0.104,5.258h-4.894V71.579z M147.844,62.573c-5.518,0-6.768,1.613-6.768,3.229
      c0,1.301,0.886,2.186,2.396,2.186c2.603,0,4.32-2.447,4.32-4.945v-0.469H147.844z"></path>
    <path fill="#001C3D" d="M162.368,71.995c-1.457,0-2.967-0.156-4.27-0.363l0.104-4.322c1.25,0.312,2.812,0.625,4.373,0.625
      c2.03,0,3.332-0.832,3.332-2.186c0-3.592-8.226-1.562-8.226-8.486c0-3.592,2.916-6.507,8.642-6.507
      c1.197,0,2.499,0.157,3.748,0.365l-0.156,4.164c-1.145-0.311-2.498-0.52-3.747-0.52c-2.031,0-3.02,0.832-3.02,2.082
      c0,3.332,8.381,1.822,8.381,8.434C171.477,69.29,167.938,71.995,162.368,71.995"></path>
    <path fill="#001C3D" d="M182.93,71.995c-4.528,0-5.883-1.664-5.883-6.402V55.284h-3.539v-4.06h3.487v-6.299l5.258-1.405v7.652
      h4.945v4.061h-4.945v8.953c0,2.604,0.624,3.385,2.396,3.385c0.884,0,1.821-0.105,2.55-0.312v4.215
      C185.897,71.788,184.388,71.995,182.93,71.995"></path>
    <path fill="#001C3D" d="M202.556,55.962c-3.748-0.781-5.674,1.666-5.674,7.34v8.33h-5.259V51.277h4.946
      c0,1.041-0.104,2.656-0.364,4.113h0.104c0.989-2.604,2.967-4.841,6.455-4.53L202.556,55.962z"></path>
    <path fill="#001C3D" d="M209.011,48.622c-1.822,0-3.228-1.457-3.228-3.176c0-1.718,1.458-3.176,3.228-3.176
      s3.279,1.406,3.279,3.176C212.291,47.165,210.781,48.622,209.011,48.622 M206.356,51.224h5.258v20.355h-5.258V51.224z"></path>
    <path fill="#001C3D" d="M225.202,71.995c-5.675,0-9.163-2.967-9.163-9.891c0-6.352,3.332-11.245,10.517-11.245
      c1.405,0,2.862,0.209,4.164,0.572l-0.521,4.53c-1.093-0.416-2.396-0.729-3.696-0.729c-3.331,0-4.998,2.445-4.998,6.299
      c0,3.488,1.354,5.883,4.842,5.883c1.406,0,2.915-0.312,4.009-0.885l0.416,4.477C229.366,71.579,227.336,71.995,225.202,71.995"></path>
    <path fill="#001C3D" d="M247.534,71.579V58.565c0-2.135-0.572-3.385-2.499-3.385c-2.654,0-4.736,3.02-4.736,6.611v9.84h-5.258
      V41.699h5.258v8.745c0,1.249-0.104,2.967-0.364,4.165l0.104,0.053c1.197-2.292,3.54-3.801,6.663-3.801
      c4.581,0,6.091,2.967,6.091,6.508v14.314h-5.258V71.579z"></path>
    <path fill="#001C3D" d="M265.234,71.995c-4.529,0-5.883-1.664-5.883-6.402V55.284h-3.54v-4.06h3.488v-6.299l5.258-1.405v7.652
      h4.945v4.061h-4.945v8.953c0,2.604,0.625,3.385,2.395,3.385c0.885,0,1.821-0.105,2.551-0.312v4.215
      C268.202,71.788,266.692,71.995,265.234,71.995"></path>
    <path fill="#001C3D" d="M294.541,72.048c-8.744,0-10.723-4.738-10.723-10.047V43.937h5.361v17.751c0,3.486,1.146,5.934,5.727,5.934
      c4.111,0,5.83-1.717,5.83-6.455V43.884h5.311v16.919C306.047,68.456,301.883,72.048,294.541,72.048"></path>
    <path fill="#001C3D" d="M323.799,71.579V58.565c0-2.135-0.574-3.385-2.498-3.385c-2.656,0-4.738,3.02-4.738,6.611v9.84h-5.258
      V51.277h4.945c0,0.937-0.104,2.55-0.26,3.591l0.051,0.053c1.25-2.394,3.592-4.113,6.924-4.113c4.582,0,6.092,2.966,6.092,6.507
      v14.316h-5.258V71.579z"></path>
    <path fill="#001C3D" d="M337.177,48.622c-1.822,0-3.229-1.457-3.229-3.176c0-1.718,1.457-3.176,3.229-3.176
      c1.822,0,3.279,1.406,3.279,3.176C340.457,47.165,339,48.622,337.177,48.622 M334.574,51.224h5.258v20.355h-5.258V51.224z"></path>
    <path fill="#001C3D" d="M356.125,71.579h-5.309l-7.549-20.355h5.727l3.227,9.162c0.469,1.406,0.99,3.02,1.355,4.529h0.104
      c0.312-1.404,0.729-2.967,1.25-4.32l3.279-9.371h5.57L356.125,71.579z"></path>
    <path fill="#001C3D" d="M383.301,62.261h-12.65c-0.053,3.801,1.822,5.674,5.621,5.674c2.031,0,4.166-0.469,5.936-1.248l0.469,4.061
      c-2.188,0.885-4.738,1.301-7.289,1.301c-6.455,0-10.098-3.227-10.098-10.412c0-6.246,3.434-10.828,9.578-10.828
      c5.934,0,8.59,4.06,8.59,9.111C383.457,60.595,383.404,61.376,383.301,62.261 M374.711,54.608c-2.188,0-3.695,1.613-3.957,4.061
      h7.496C378.353,56.118,376.949,54.608,374.711,54.608"></path>
    <path fill="#001C3D" d="M398.709,55.962c-3.748-0.781-5.674,1.666-5.674,7.34v8.33h-5.258V51.277h4.945
      c0,1.041-0.104,2.656-0.365,4.113h0.105c0.988-2.604,2.967-4.841,6.455-4.53L398.709,55.962z"></path>
    <path fill="#001C3D" d="M405.945,71.995c-1.457,0-2.967-0.156-4.27-0.363l0.104-4.322c1.25,0.312,2.812,0.625,4.375,0.625
      c2.029,0,3.33-0.832,3.33-2.186c0-3.592-8.225-1.562-8.225-8.486c0-3.592,2.916-6.507,8.643-6.507c1.195,0,2.498,0.157,3.746,0.365
      l-0.154,4.164c-1.146-0.311-2.5-0.52-3.748-0.52c-2.031,0-3.02,0.832-3.02,2.082c0,3.332,8.381,1.822,8.381,8.434
      C415.054,69.29,411.515,71.995,405.945,71.995"></path>
    <path fill="#001C3D" d="M421.978,48.622c-1.822,0-3.227-1.457-3.227-3.176c0-1.718,1.457-3.176,3.227-3.176
      c1.822,0,3.279,1.406,3.279,3.176C425.258,47.165,423.801,48.622,421.978,48.622 M419.377,51.224h5.258v20.355h-5.258V51.224z"></path>
    <path fill="#001C3D" d="M438.17,71.995c-4.529,0-5.883-1.664-5.883-6.402V55.284h-3.541v-4.06h3.488v-6.299l5.258-1.405v7.652
      h4.945v4.061h-4.945v8.953c0,2.604,0.625,3.385,2.395,3.385c0.885,0,1.822-0.105,2.551-0.312v4.215
      C441.136,71.788,439.627,71.995,438.17,71.995"></path>
    <path fill="#001C3D" d="M456.441,73.505c-2.395,6.352-4.529,8.277-9.215,8.277c-0.885,0-2.029-0.104-2.863-0.312l0.312-4.529
      c0.938,0.312,1.822,0.469,2.811,0.469c1.719,0,2.863-0.779,3.957-3.799l0.678-1.979l-7.498-20.355h5.832l2.758,7.808
      c0.625,1.77,1.146,3.748,1.615,5.623h0.051c0.469-1.822,1.303-4.529,1.979-6.455l2.395-6.924h5.623L456.441,73.505z"></path>
  </g>
  <g class="logo-symbol">
    <polygon fill="#FFFFFF" points="3.449,29.354 3.449,55.604 36.699,43.78 	"></polygon>
    <path fill="#001C3D" d="M0,22.333v40.45l41.698-18.95L0,22.333z M12.233,50.496c-3.488,0-5.986-1.562-5.986-5.518
      c0-3.279,0.052-6.039,0.104-8.745h3.644c-0.052,2.811-0.052,5.621-0.052,8.484c0,2.082,0.78,2.916,2.343,2.916
      c1.145,0,2.395-0.521,2.395-2.968l0.052-8.382h3.645l-0.053,8.799C18.272,48.622,15.825,50.496,12.233,50.496"></path>
    <polyline fill="#FFFFFF" points="48.574,86.854 12.199,71.579 48.574,53.354 	"></polyline>
    <path fill="#001C3D" d="M8.849,71.579l41.698,18.949V50.08L8.849,71.579z M44.093,77.306l-1.51-9.943h-0.052l-2.446,9.943H35.92
      l-2.29-9.943h-0.053l-2.03,9.943h-3.54l3.332-13.9h4.528l2.03,10.152h0.053l2.499-10.152h4.528l2.76,13.9H44.093z"></path>
  </g>
</svg>